<svg xmlns="http://www.w3.org/2000/svg" width="140" height="131" viewBox="0 0 140 131">
  <defs>
    <style>
      .cls-1 {
        fill: #ededed;
        fill-rule: evenodd;
      }
    </style>
  </defs>
  <path id="resonsive-icon" class="cls-1" d="M430.292,6600.45H381.438a2.058,2.058,0,0,1-2.06-2.05v-79.03a2.058,2.058,0,0,1,2.06-2.05H498.557a2.058,2.058,0,0,1,2.06,2.05v17.31a21.09,21.09,0,0,1,9.378,3.36v-20.67A11.418,11.418,0,0,0,498.557,6508H381.438A11.418,11.418,0,0,0,370,6519.37v79.03a11.418,11.418,0,0,0,11.438,11.37H420.7v15.24H414.5a7,7,0,1,0,0,13.99h19.745a20.874,20.874,0,0,1-3.956-12.19v-26.36h0Zm39.362,31.5v-10.07H449.048v-64.34a2.466,2.466,0,0,1,2.473-2.46h46.624a2.466,2.466,0,0,1,2.472,2.46v19.91h3.513a11.679,11.679,0,0,1,5.865,1.62v-21.53a11.834,11.834,0,0,0-11.85-11.79H451.521a11.835,11.835,0,0,0-11.851,11.79v69.27a11.834,11.834,0,0,0,11.851,11.79h20.248A12.316,12.316,0,0,1,469.654,6631.95Zm34.476-48.67H481.386a5.862,5.862,0,0,0-5.871,5.84v42.83a5.853,5.853,0,0,0,5.871,5.83H504.13a5.853,5.853,0,0,0,5.87-5.83v-42.83A5.862,5.862,0,0,0,504.13,6583.28Zm-21.582,6.99h20.418v37.02H482.548v-37.02Zm10.212,44.68a2.462,2.462,0,0,1-1.662-.66,2.428,2.428,0,0,1-.82-1.81A2.462,2.462,0,1,1,492.76,6634.95Z" transform="translate(-370 -6508)"/>
</svg>
